<svg width="350" height="218" viewBox="0 0 350 218" fill="none" xmlns="http://www.w3.org/2000/svg">
<g clip-path="url(#clip0_1508_41585)">
<rect width="350" height="218" fill="#0486FF"/>
<path d="M0 -0.000193941H350V218H0V-0.000193941Z" fill="#0486FF"/>
<path d="M350.089 86.2829V143.759V178.318H350.355C350.239 178.445 350.123 178.572 350.007 178.7C349.775 178.954 349.541 179.208 349.307 179.461C348.371 180.474 347.418 181.48 346.447 182.48C342.567 186.475 338.429 190.355 334.049 194.106C325.288 201.606 315.557 208.587 304.984 214.939C303.663 215.733 302.328 216.516 300.979 217.291C300.305 217.677 299.629 218.062 298.948 218.444V218.087H25.2019V218.682C24.6133 218.303 24.0284 217.922 23.4469 217.538C18.7956 214.468 14.3719 211.229 10.1948 207.831C8.10636 206.133 6.07945 204.394 4.11653 202.617C3.13514 201.729 2.16967 200.831 1.22053 199.923C0.745977 199.47 0.275424 199.014 -0.190957 198.555H-0.0869485V39.6812H-0.353516C-0.237887 39.5539 -0.122017 39.4268 -0.00590843 39.2997C0.226308 39.0455 0.459584 38.7917 0.693887 38.5383C1.63106 37.5251 2.58467 36.5189 3.55443 35.5198C7.43357 31.5238 11.5715 27.6438 15.9521 23.8934C24.7134 16.3927 34.4451 9.41136 45.0175 3.05956C46.3391 2.2678 47.6736 1.48246 49.0212 0.707821C49.695 0.322643 50.372 -0.0625231 51.0523 -0.445562V-0.0881975H324.801V-0.683101C325.387 -0.304342 325.973 0.0765565 326.555 0.461735C331.206 3.53246 335.629 6.77033 339.806 10.168C341.895 11.8667 343.922 13.6051 345.885 15.382C346.866 16.2705 347.832 17.1684 348.781 18.076C349.256 18.5298 349.726 18.9858 350.192 19.4442H350.089V86.2829Z" fill="#0486FF"/>
<path d="M350.089 89.5275V114.639V126.872H350.315C348.988 130.901 347.382 134.879 345.514 138.793C338.039 154.451 326.347 169.09 311.33 181.947C296.31 194.806 277.964 205.883 257.178 214.419C254.58 215.485 251.945 216.513 249.272 217.499C248.604 217.745 247.934 217.989 247.262 218.23V218.087H76.5914V218.218C75.9885 217.982 75.3881 217.742 74.7901 217.5C73.5943 217.016 72.4084 216.521 71.2325 216.016C66.5294 213.999 61.9893 211.818 57.628 209.484C40.1834 200.15 25.6037 188.363 14.9224 174.676C9.58185 167.832 5.21582 160.515 1.95369 152.79C1.13809 150.86 0.39157 148.903 -0.283993 146.923H-0.0864685V91.1268H-0.3125C1.01501 87.0974 2.62002 83.1196 4.48855 79.2051C11.9629 63.548 23.6546 48.9093 38.6739 36.051C53.693 23.1929 72.0397 12.1152 92.8237 3.57921C95.4216 2.51355 98.058 1.48642 100.73 0.499933C101.399 0.253847 102.069 0.00989651 102.742 -0.23191V-0.0885338H273.411V-0.219079C274.013 0.0163078 274.614 0.255974 275.213 0.497781C276.407 0.983533 277.594 1.47785 278.771 1.98287C283.473 4.00077 288.013 6.18066 292.374 8.5142C309.818 17.8488 324.4 29.6361 335.08 43.3225C340.42 50.1659 344.786 57.4841 348.047 65.2079C348.863 67.139 349.611 69.0955 350.287 71.0759H350.089V89.5275Z" fill="#0486FF"/>
<path d="M324.495 92.7745C330.662 149.215 268.733 202.236 186.168 211.197C144.887 215.677 106.263 208.295 77.189 192.738C48.1147 177.18 28.5899 153.447 25.5056 125.227C19.3373 68.7854 81.2675 15.7652 163.83 6.80524C205.112 2.32326 243.736 9.70631 272.81 25.2633C301.884 40.821 321.409 64.5537 324.495 92.7745Z" fill="#0486FF"/>
<path d="M294.595 96.0192C299.53 141.172 249.987 183.588 183.936 190.757C117.885 197.926 60.34 167.134 55.4053 121.98C50.4706 76.8275 100.015 34.4113 166.065 27.2436C232.116 20.0741 289.661 50.8656 294.595 96.0192Z" fill="#FFDB00"/>
<path d="M264.697 99.2644C268.399 133.13 231.242 164.941 181.703 170.319C132.165 175.695 89.0055 152.601 85.3049 118.736C81.6038 84.8712 118.762 53.0588 168.3 47.683C217.838 42.3056 260.997 65.3999 264.697 99.2644Z" fill="#FFDC00"/>
<path d="M234.798 102.509C237.265 125.086 212.494 146.294 179.469 149.878C146.442 153.463 117.67 138.067 115.203 115.49C112.735 92.914 137.507 71.7059 170.533 68.1214C203.559 64.5369 232.331 79.9327 234.798 102.509Z" fill="#FFDC00"/>
<path d="M204.9 105.753C206.134 117.042 193.748 127.645 177.235 129.438C160.723 131.23 146.336 123.532 145.102 112.244C143.869 100.955 156.255 90.3522 172.767 88.5588C189.28 86.7667 203.667 94.4649 204.9 105.753Z" fill="#FFDC00"/>
<path d="M110.77 91.2843L109.88 97.9342C108.158 97.1049 105.735 96.5364 102.778 96.8843C100.929 97.1023 99.4076 97.5121 99.5616 98.8105C99.6325 99.407 100.529 99.5858 101.533 99.7881L105.404 100.524C108.855 101.185 111.199 102.741 111.565 105.828C112.155 110.809 108.022 114.942 101.193 115.746C96.2471 116.327 93.0166 115.427 91.3594 114.839L92.4295 108.204C94.3116 109.032 96.6829 109.908 100.889 109.414C102.526 109.221 103.659 108.696 103.541 107.697C103.485 107.224 103.065 106.846 101.937 106.659L98.3865 106.063C95.6198 105.605 92.4426 104.397 91.9789 100.485C91.3576 95.2406 95.8875 91.4526 102.629 90.66C106.203 90.2388 108.941 90.6103 110.77 91.2843Z" fill="white"/>
<path d="M121.944 95.074L121.749 100.344L124.934 99.9694C127.134 99.7104 128.509 98.6597 128.244 96.4317C128.064 94.9057 126.979 94.4819 125.149 94.6973L121.944 95.074ZM126.231 106.094L121.496 106.652L121.23 112.996L113.75 113.877L114.713 89.6118L126.946 88.1721C132.454 87.5242 135.324 90.5126 135.798 94.5116C136.411 99.686 133.289 105.264 126.231 106.094Z" fill="white"/>
<path d="M156.045 108.902L137.564 111.076L138.527 86.8105L156.955 84.6428L156.716 90.7536L145.767 92.0414L145.66 94.9L155.587 93.7312L155.34 99.7892L145.413 100.958L145.291 104.138L156.274 102.846L156.045 108.902Z" fill="white"/>
<path d="M172.243 82.4888C174.584 82.2124 176.821 82.2694 179.414 83.068L178.597 89.7252C177.04 89.0912 174.965 88.7478 172.554 89.0319C168.453 89.5146 164.788 91.7249 165.351 96.4779C165.776 100.056 169.055 101.075 172.346 100.688C174.159 100.475 176.117 99.6754 178.267 98.0881L179.202 104.469C176.003 106.696 173.335 107.223 170.395 107.57C163.092 108.428 157.409 104.296 157.696 96.6314C158.026 88.2696 164.591 83.4245 172.243 82.4888Z" fill="white"/>
<path d="M188.959 105.028L181.477 105.908L182.439 81.6429L189.937 80.7615L188.959 105.028Z" fill="white"/>
<path d="M206.97 93.3235L204.921 86.1122L202.253 93.8781L206.97 93.3235ZM200.479 99.8312L198.886 103.861L190.895 104.801L200.746 79.4898L209.688 78.4375L217.578 101.662L209.587 102.602L208.258 98.9164L200.479 99.8312Z" fill="white"/>
<path d="M237.888 99.2715L219.479 101.438L220.44 77.1725L227.939 76.2903L227.204 94.499L238.135 93.2137L237.888 99.2715Z" fill="white"/>
<path d="M258.413 107.792L63.7702 132.447L54.5742 78.9556L252.898 64.5452L258.413 107.792Z" fill="#241C00"/>
<path d="M273.531 141.746L107.922 161.785L104.316 127.311L277.499 96.8489L273.531 141.746Z" fill="#241C00"/>
<mask id="mask0_1508_41585" style="mask-type:luminance" maskUnits="userSpaceOnUse" x="78" y="93" width="22" height="30">
<path d="M99.7716 119.659L78.5312 122.35L79.3923 94.3148L88.0431 93.2187L87.3835 114.257L99.9939 112.659L99.7716 119.659Z" fill="white"/>
</mask>
<g mask="url(#mask0_1508_41585)">
<path d="M73.0605 94.0912L73.715 93.9875L78.811 125.727L78.1565 125.832L73.0605 94.0912Z" fill="#FFDB00"/>
<path d="M73.7148 93.9866L74.3694 93.882L79.4653 125.623L78.8108 125.727L73.7148 93.9866Z" fill="#FFDB00"/>
<path d="M74.3691 93.8822L75.0236 93.7776L80.1196 125.518L79.4651 125.623L74.3691 93.8822Z" fill="#FFDB00"/>
<path d="M75.0234 93.7787L75.6779 93.675L80.7739 125.415L80.1194 125.52L75.0234 93.7787Z" fill="#FFDB00"/>
<path d="M75.6777 93.6741L76.3322 93.5695L81.4282 125.31L80.7737 125.414L75.6777 93.6741Z" fill="#FFDB00"/>
<path d="M76.334 93.5697L76.9885 93.4651L82.0845 125.206L81.43 125.311L76.334 93.5697Z" fill="#FFDB00"/>
<path d="M76.9883 93.4643L77.6428 93.3605L82.7388 125.1L82.0843 125.205L76.9883 93.4643Z" fill="#FFDB00"/>
<path d="M77.6426 93.3616L78.2971 93.257L83.3931 124.998L82.7386 125.102L77.6426 93.3616Z" fill="#FFDB00"/>
<path d="M78.2969 93.2572L78.9514 93.1526L84.0474 124.893L83.3929 124.998L78.2969 93.2572Z" fill="#FFDB00"/>
<path d="M78.9512 93.1518L79.6057 93.048L84.7017 124.788L84.0472 124.893L78.9512 93.1518Z" fill="#FFDB00"/>
<path d="M79.6055 93.0491L80.26 92.9445L85.356 124.685L84.7015 124.789L79.6055 93.0491Z" fill="#FFDB00"/>
<path d="M80.2598 92.9428L80.9143 92.8382L86.0103 124.579L85.3558 124.684L80.2598 92.9428Z" fill="#FFDB00"/>
<path d="M80.9141 92.8393L81.5686 92.7346L86.6646 124.475L86.0101 124.58L80.9141 92.8393Z" fill="#FFDB00"/>
<path d="M81.5684 92.7338L82.2229 92.63L87.3188 124.371L86.6643 124.475L81.5684 92.7338Z" fill="#FFDB00"/>
<path d="M82.2246 92.6303L82.8791 92.5257L87.9748 124.266L87.3205 124.371L82.2246 92.6303Z" fill="#FFDB00"/>
<path d="M82.8789 92.5268L83.5334 92.4221L88.6291 124.163L87.9746 124.268L82.8789 92.5268Z" fill="#FFDB00"/>
<path d="M83.5332 92.4213L84.1877 92.3175L89.2834 124.058L88.6289 124.162L83.5332 92.4213Z" fill="#FFDB00"/>
<path d="M84.1875 92.3178L84.842 92.2132L89.9377 123.954L89.2832 124.059L84.1875 92.3178Z" fill="#FFDB00"/>
<path d="M84.8418 92.2123L85.4963 92.1077L90.592 123.848L89.9375 123.953L84.8418 92.2123Z" fill="#FFDB00"/>
<path d="M85.4961 92.1088L86.1506 92.005L91.2463 123.745L90.5918 123.85L85.4961 92.1088Z" fill="#FFDB00"/>
<path d="M86.1504 92.0042L86.8049 91.8996L91.9006 123.64L91.2461 123.744L86.1504 92.0042Z" fill="#FFDB00"/>
<path d="M86.8047 91.8998L87.4592 91.7952L92.5549 123.536L91.9004 123.641L86.8047 91.8998Z" fill="#FFDB00"/>
<path d="M87.459 91.7944L88.1132 91.6906L93.2092 123.431L92.5547 123.535L87.459 91.7944Z" fill="#FFDB00"/>
<path d="M88.1133 91.6917L88.7678 91.5871L93.8638 123.328L93.2093 123.432L88.1133 91.6917Z" fill="#FFDB00"/>
<path d="M88.7676 91.5873L89.4221 91.4827L94.5181 123.223L93.8636 123.328L88.7676 91.5873Z" fill="#FFDB00"/>
<path d="M89.4238 91.4819L90.0783 91.3781L95.1743 123.118L94.5198 123.223L89.4238 91.4819Z" fill="#FFDB00"/>
<path d="M90.0781 91.3792L90.7326 91.2746L95.8286 123.015L95.1741 123.119L90.0781 91.3792Z" fill="#FFDB00"/>
<path d="M90.7324 91.2729L91.3869 91.1682L96.4829 122.909L95.8284 123.014L90.7324 91.2729Z" fill="#FFDB00"/>
<path d="M91.3867 91.1694L92.0412 91.0656L97.1372 122.806L96.4827 122.91L91.3867 91.1694Z" fill="#FFDB00"/>
<path d="M92.041 91.0648L92.6955 90.9601L97.7915 122.701L97.137 122.805L92.041 91.0648Z" fill="#FFDB00"/>
<path d="M92.6953 90.9604L93.3498 90.8557L98.4458 122.597L97.7913 122.701L92.6953 90.9604Z" fill="#FFDB00"/>
<path d="M93.3496 90.8569L94.0041 90.7531L99.1001 122.493L98.4456 122.598L93.3496 90.8569Z" fill="#FFDB00"/>
<path d="M94.0039 90.7523L94.6584 90.6476L99.7544 122.388L99.0999 122.492L94.0039 90.7523Z" fill="#FFDB00"/>
<path d="M94.6582 90.6479L95.3127 90.5432L100.409 122.284L99.7542 122.389L94.6582 90.6479Z" fill="#FFDB00"/>
<path d="M95.3125 90.5424L95.967 90.4386L101.063 122.179L100.408 122.283L95.3125 90.5424Z" fill="#FFDB00"/>
<path d="M95.9688 90.4398L96.6232 90.3351L101.719 122.076L101.065 122.18L95.9688 90.4398Z" fill="#FFDB00"/>
<path d="M96.623 90.3354L97.2775 90.2307L102.374 121.972L101.719 122.076L96.623 90.3354Z" fill="#FFDB00"/>
<path d="M97.2773 90.2299L97.9318 90.1253L103.028 121.866L102.373 121.971L97.2773 90.2299Z" fill="#FFDB00"/>
<path d="M97.9316 90.1244L98.5861 90.0207L103.682 121.761L103.028 121.865L97.9316 90.1244Z" fill="#FFDB00"/>
<path d="M98.5859 90.0209L99.2404 89.9163L104.336 121.657L103.682 121.762L98.5859 90.0209Z" fill="#FFDB00"/>
<path d="M99.2402 89.9174L99.8947 89.8128L104.991 121.554L104.336 121.658L99.2402 89.9174Z" fill="#FFDB00"/>
<path d="M99.8945 89.8119L100.549 89.7082L105.645 121.449L104.991 121.553L99.8945 89.8119Z" fill="#FFDB00"/>
</g>
<mask id="mask1_1508_41585" style="mask-type:luminance" maskUnits="userSpaceOnUse" x="102" y="90" width="10" height="30">
<path d="M110.781 118.264L102.15 119.357L103.011 91.3226L111.663 90.2265L110.781 118.264Z" fill="white"/>
</mask>
<g mask="url(#mask1_1508_41585)">
<path d="M96.7441 91.0881L97.3986 90.9835L102.196 120.866L101.542 120.971L96.7441 91.0881Z" fill="#FFDB00"/>
<path d="M97.3984 90.9827L98.0529 90.878L102.851 120.761L102.196 120.865L97.3984 90.9827Z" fill="#FFDB00"/>
<path d="M98.0527 90.8791L98.7072 90.7754L103.505 120.658L102.85 120.762L98.0527 90.8791Z" fill="#FFDB00"/>
<path d="M98.707 90.7756L99.3615 90.671L104.159 120.554L103.505 120.658L98.707 90.7756Z" fill="#FFDB00"/>
<path d="M99.3613 90.6702L100.016 90.5655L104.813 120.448L104.159 120.553L99.3613 90.6702Z" fill="#FFDB00"/>
<path d="M100.018 90.5667L100.672 90.4629L105.47 120.345L104.815 120.449L100.018 90.5667Z" fill="#FFDB00"/>
<path d="M100.672 90.4612L101.326 90.3565L106.124 120.239L105.469 120.344L100.672 90.4612Z" fill="#FFDB00"/>
<path d="M101.326 90.3577L101.981 90.253L106.778 120.136L106.124 120.24L101.326 90.3577Z" fill="#FFDB00"/>
<path d="M101.98 90.2522L102.635 90.1476L107.433 120.031L106.778 120.135L101.98 90.2522Z" fill="#FFDB00"/>
<path d="M102.635 90.1478L103.289 90.044L108.087 119.927L107.432 120.031L102.635 90.1478Z" fill="#FFDB00"/>
<path d="M103.289 90.0452L103.944 89.9405L108.741 119.823L108.087 119.928L103.289 90.0452Z" fill="#FFDB00"/>
<path d="M103.943 89.9397L104.598 89.8351L109.395 119.719L108.741 119.822L103.943 89.9397Z" fill="#FFDB00"/>
<path d="M104.598 89.8353L105.252 89.7315L110.05 119.614L109.395 119.719L104.598 89.8353Z" fill="#FFDB00"/>
<path d="M105.252 89.7307L105.906 89.6261L110.704 119.509L110.05 119.613L105.252 89.7307Z" fill="#FFDB00"/>
<path d="M105.906 89.6272L106.561 89.5226L111.358 119.405L110.704 119.51L105.906 89.6272Z" fill="#FFDB00"/>
<path d="M106.562 89.5217L107.217 89.418L112.015 119.301L111.36 119.404L106.562 89.5217Z" fill="#FFDB00"/>
<path d="M107.217 89.4182L107.871 89.3136L112.669 119.196L112.014 119.301L107.217 89.4182Z" fill="#FFDB00"/>
<path d="M107.871 89.3127L108.526 89.2081L113.323 119.091L112.669 119.195L107.871 89.3127Z" fill="#FFDB00"/>
<path d="M108.525 89.2092L109.18 89.1055L113.978 118.988L113.323 119.092L108.525 89.2092Z" fill="#FFDB00"/>
<path d="M109.18 89.1057L109.834 89.0011L114.632 118.884L113.977 118.988L109.18 89.1057Z" fill="#FFDB00"/>
<path d="M109.834 89.0002L110.488 88.8956L115.286 118.778L114.632 118.883L109.834 89.0002Z" fill="#FFDB00"/>
<path d="M110.488 88.8967L111.143 88.793L115.94 118.676L115.286 118.779L110.488 88.8967Z" fill="#FFDB00"/>
<path d="M111.143 88.7913L111.797 88.6866L116.595 118.569L115.94 118.674L111.143 88.7913Z" fill="#FFDB00"/>
</g>
<mask id="mask2_1508_41585" style="mask-type:luminance" maskUnits="userSpaceOnUse" x="114" y="85" width="34" height="33">
<path d="M121.96 88.9233L130.612 98.3557L139.891 86.6518L147.161 85.7318L146.299 113.767L137.975 114.821L138.418 100.185L131.168 109.185L130.295 109.295L123.409 102.065L122.968 116.722L114.662 117.773L115.523 89.7386L121.96 88.9233Z" fill="white"/>
</mask>
<g mask="url(#mask2_1508_41585)">
<path d="M108.789 86.6685L109.444 86.5639L115.27 122.859L114.616 122.963L108.789 86.6685Z" fill="#FFDB00"/>
<path d="M109.443 86.5641L110.098 86.4595L115.924 122.755L115.27 122.859L109.443 86.5641Z" fill="#FFDB00"/>
<path d="M110.098 86.4587L110.752 86.3549L116.579 122.649L115.924 122.754L110.098 86.4587Z" fill="#FFDB00"/>
<path d="M110.752 86.356L111.406 86.2514L117.233 122.547L116.579 122.65L110.752 86.356Z" fill="#FFDB00"/>
<path d="M111.406 86.2516L112.061 86.147L117.887 122.442L117.233 122.547L111.406 86.2516Z" fill="#FFDB00"/>
<path d="M112.062 86.1461L112.717 86.0424L118.544 122.337L117.889 122.441L112.062 86.1461Z" fill="#FFDB00"/>
<path d="M112.717 86.0416L113.371 85.9369L119.198 122.232L118.543 122.336L112.717 86.0416Z" fill="#FFDB00"/>
<path d="M113.371 85.9372L114.026 85.8325L119.852 122.128L119.198 122.232L113.371 85.9372Z" fill="#FFDB00"/>
<path d="M114.025 85.8337L114.68 85.7299L120.507 122.024L119.852 122.129L114.025 85.8337Z" fill="#FFDB00"/>
<path d="M114.68 85.7291L115.334 85.6244L121.161 121.92L120.506 122.023L114.68 85.7291Z" fill="#FFDB00"/>
<path d="M115.334 85.6247L115.988 85.52L121.815 121.815L121.161 121.92L115.334 85.6247Z" fill="#FFDB00"/>
<path d="M115.988 85.5192L116.643 85.4154L122.469 121.71L121.815 121.814L115.988 85.5192Z" fill="#FFDB00"/>
<path d="M116.643 85.4166L117.297 85.3119L123.124 121.606L122.469 121.711L116.643 85.4166Z" fill="#FFDB00"/>
<path d="M117.297 85.3111L117.951 85.2065L123.778 121.502L123.124 121.605L117.297 85.3111Z" fill="#FFDB00"/>
<path d="M117.951 85.2067L118.606 85.1029L124.432 121.397L123.778 121.502L117.951 85.2067Z" fill="#FFDB00"/>
<path d="M118.607 85.1041L119.262 84.9994L125.089 121.294L124.434 121.398L118.607 85.1041Z" fill="#FFDB00"/>
<path d="M119.262 84.9986L119.916 84.8939L125.743 121.189L125.088 121.293L119.262 84.9986Z" fill="#FFDB00"/>
<path d="M119.916 84.8942L120.571 84.7904L126.397 121.085L125.743 121.189L119.916 84.8942Z" fill="#FFDB00"/>
<path d="M120.57 84.7896L121.225 84.685L127.051 120.979L126.397 121.084L120.57 84.7896Z" fill="#FFDB00"/>
<path d="M121.225 84.6861L121.879 84.5814L127.706 120.877L127.051 120.98L121.225 84.6861Z" fill="#FFDB00"/>
<path d="M121.879 84.5817L122.533 84.477L128.36 120.772L127.706 120.877L121.879 84.5817Z" fill="#FFDB00"/>
<path d="M122.533 84.4762L123.188 84.3725L129.014 120.667L128.36 120.771L122.533 84.4762Z" fill="#FFDB00"/>
<path d="M123.188 84.3716L123.842 84.267L129.669 120.562L129.014 120.666L123.188 84.3716Z" fill="#FFDB00"/>
<path d="M123.842 84.2672L124.496 84.1626L130.323 120.458L129.668 120.562L123.842 84.2672Z" fill="#FFDB00"/>
<path d="M124.496 84.1637L125.151 84.06L130.977 120.354L130.323 120.459L124.496 84.1637Z" fill="#FFDB00"/>
<path d="M125.152 84.0591L125.807 83.9545L131.633 120.25L130.979 120.354L125.152 84.0591Z" fill="#FFDB00"/>
<path d="M125.807 83.9547L126.461 83.8501L132.288 120.145L131.633 120.25L125.807 83.9547Z" fill="#FFDB00"/>
<path d="M126.461 83.8493L127.115 83.7455L132.942 120.04L132.288 120.145L126.461 83.8493Z" fill="#FFDB00"/>
<path d="M127.115 83.7466L127.77 83.642L133.596 119.937L132.942 120.041L127.115 83.7466Z" fill="#FFDB00"/>
<path d="M127.77 83.6422L128.424 83.5376L134.251 119.833L133.596 119.938L127.77 83.6422Z" fill="#FFDB00"/>
<path d="M128.424 83.5368L129.078 83.433L134.905 119.727L134.25 119.832L128.424 83.5368Z" fill="#FFDB00"/>
<path d="M129.078 83.4341L129.733 83.3295L135.559 119.625L134.905 119.729L129.078 83.4341Z" fill="#FFDB00"/>
<path d="M129.732 83.3278L130.387 83.2232L136.214 119.518L135.559 119.623L129.732 83.3278Z" fill="#FFDB00"/>
<path d="M130.387 83.2243L131.041 83.1205L136.868 119.415L136.213 119.52L130.387 83.2243Z" fill="#FFDB00"/>
<path d="M131.043 83.1197L131.697 83.015L137.524 119.309L136.87 119.414L131.043 83.1197Z" fill="#FFDB00"/>
<path d="M131.697 83.0162L132.352 82.9115L138.178 119.207L137.524 119.311L131.697 83.0162Z" fill="#FFDB00"/>
<path d="M132.352 82.9118L133.006 82.808L138.833 119.102L138.178 119.207L132.352 82.9118Z" fill="#FFDB00"/>
<path d="M133.006 82.8072L133.66 82.7025L139.487 118.997L138.832 119.102L133.006 82.8072Z" fill="#FFDB00"/>
<path d="M133.66 82.7017L134.315 82.5971L140.141 118.892L139.487 118.996L133.66 82.7017Z" fill="#FFDB00"/>
<path d="M134.314 82.5973L134.969 82.4927L140.796 118.788L140.141 118.893L134.314 82.5973Z" fill="#FFDB00"/>
<path d="M134.969 82.4938L135.623 82.39L141.45 118.684L140.795 118.789L134.969 82.4938Z" fill="#FFDB00"/>
<path d="M135.623 82.3892L136.278 82.2846L142.104 118.58L141.45 118.684L135.623 82.3892Z" fill="#FFDB00"/>
<path d="M136.277 82.2851L136.932 82.1812L142.759 118.476L142.105 118.58" fill="#FFDB00"/>
<path d="M136.932 82.1818L137.586 82.0774L143.413 118.372L142.759 118.477" fill="#FFDB00"/>
<path d="M137.586 82.0762L138.24 81.9723L144.067 118.267L143.412 118.371" fill="#FFDB00"/>
<path d="M138.242 81.9723L138.897 81.8679L144.724 118.163L144.069 118.268" fill="#FFDB00"/>
<path d="M138.896 81.8671L139.55 81.7631L145.378 118.057L144.723 118.162" fill="#FFDB00"/>
<path d="M139.551 81.7644L140.206 81.66L146.033 117.954L145.378 118.059" fill="#FFDB00"/>
<path d="M140.205 81.6586L140.86 81.5546L146.687 117.849L146.033 117.953" fill="#FFDB00"/>
<path d="M140.859 81.5549L141.514 81.4505L147.341 117.745L146.686 117.85" fill="#FFDB00"/>
<path d="M141.514 81.4494L142.168 81.3451L147.995 117.64L147.341 117.744" fill="#FFDB00"/>
<path d="M142.168 81.3459L142.823 81.2416L148.65 117.536L147.995 117.641" fill="#FFDB00"/>
<path d="M142.822 81.2424L143.477 81.138L149.304 117.433L148.649 117.537" fill="#FFDB00"/>
<path d="M143.477 81.1369L144.131 81.0326L149.958 117.327L149.304 117.432" fill="#FFDB00"/>
<path d="M144.133 81.0334L144.787 80.9291L150.614 117.224L149.96 117.328" fill="#FFDB00"/>
<path d="M144.787 80.928L145.442 80.8236L151.269 117.118L150.614 117.223" fill="#FFDB00"/>
<path d="M145.441 80.8244L146.096 80.7201L151.923 117.015L151.268 117.119" fill="#FFDB00"/>
<path d="M146.096 80.719L146.749 80.6146L152.577 116.909L151.923 117.014" fill="#FFDB00"/>
<path d="M146.75 80.6155L147.405 80.5111L153.233 116.806L152.578 116.91" fill="#FFDB00"/>
</g>
<mask id="mask3_1508_41585" style="mask-type:luminance" maskUnits="userSpaceOnUse" x="150" y="84" width="10" height="30">
<path d="M158.814 112.18L150.184 113.273L151.045 85.2378L159.695 84.1425L158.814 112.18Z" fill="white"/>
</mask>
<g mask="url(#mask3_1508_41585)">
<path d="M144.77 85.0062L145.424 84.9015L150.222 114.785L149.567 114.889" fill="#FFDB00"/>
<path d="M145.424 84.9025L146.078 84.7983L150.876 114.681L150.221 114.785" fill="#FFDB00"/>
<path d="M146.078 84.7971L146.733 84.6924L151.53 114.575L150.876 114.68" fill="#FFDB00"/>
<path d="M146.732 84.6938L147.387 84.5896L152.185 114.472L151.53 114.576" fill="#FFDB00"/>
<path d="M147.389 84.5878L148.043 84.4832L152.841 114.366L152.187 114.471" fill="#FFDB00"/>
<path d="M148.041 84.4842L148.695 84.3801L153.493 114.263L152.839 114.367" fill="#FFDB00"/>
<path d="M148.695 84.3814L149.35 84.2768L154.147 114.159L153.493 114.264" fill="#FFDB00"/>
<path d="M149.35 84.2759L150.004 84.1708L154.802 114.054L154.148 114.158" fill="#FFDB00"/>
<path d="M150.006 84.1724L150.661 84.0679L155.458 113.95L154.804 114.055" fill="#FFDB00"/>
<path d="M150.66 84.0671L151.315 83.9621L156.113 113.845L155.458 113.949" fill="#FFDB00"/>
<path d="M151.314 83.9629L151.969 83.8584L156.767 113.741L156.112 113.846" fill="#FFDB00"/>
<path d="M151.969 83.8577L152.623 83.7528L157.421 113.635L156.766 113.74" fill="#FFDB00"/>
<path d="M152.623 83.7546L153.278 83.6502L158.075 113.532L157.421 113.637" fill="#FFDA00"/>
<path d="M153.279 83.6487L153.934 83.5448L158.732 113.427L158.077 113.531" fill="#FFDA00"/>
<path d="M153.934 83.5447L154.588 83.4404L159.386 113.323L158.732 113.428" fill="#FFDA00"/>
<path d="M154.588 83.4415L155.242 83.337L160.04 113.22L159.385 113.324" fill="#FFDA00"/>
<path d="M155.242 83.336L155.897 83.2315L160.694 113.114L160.04 113.219" fill="#FFDA00"/>
<path d="M155.896 83.2325L156.551 83.129L161.349 113.011L160.694 113.115" fill="#FFDA00"/>
<path d="M156.551 83.128L157.205 83.0235L162.003 112.905L161.349 113.01" fill="#FFDA00"/>
<path d="M157.205 83.0245L157.86 82.92L162.657 112.802L162.003 112.906" fill="#FFDA00"/>
<path d="M157.859 82.919L158.514 82.8145L163.312 112.697L162.657 112.801" fill="#FFDA00"/>
<path d="M158.514 82.8145L159.168 82.71L163.966 112.593L163.311 112.697" fill="#FFDA00"/>
<path d="M159.168 82.711L159.822 82.6065L164.62 112.489L163.966 112.594" fill="#FFDA00"/>
</g>
<mask id="mask4_1508_41585" style="mask-type:luminance" maskUnits="userSpaceOnUse" x="161" y="80" width="26" height="31">
<path d="M169.387 90.0715L161.854 91.0254L162.072 83.8419L186.137 80.7934L185.898 87.9804L178.038 88.9754L177.396 109.827L168.745 110.922L169.387 90.0715Z" fill="white"/>
</mask>
<g mask="url(#mask4_1508_41585)">
<path d="M156.316 81.6771L156.971 81.5729L162.293 114.724L161.639 114.828" fill="#FFDA00"/>
<path d="M156.971 81.5734L157.625 81.4688L162.948 114.62L162.293 114.725" fill="#FFDA00"/>
<path d="M157.625 81.4667L158.279 81.3627L163.602 114.514L162.948 114.619" fill="#FFDA00"/>
<path d="M158.281 81.3622L158.935 81.2577L164.258 114.41L163.604 114.514" fill="#FFDA00"/>
<path d="M158.936 81.2586L159.59 81.1537L164.913 114.305L164.258 114.41" fill="#FFDA00"/>
<path d="M159.59 81.1551L160.244 81.0508L165.566 114.202L164.912 114.307" fill="#FFDA00"/>
<path d="M160.244 81.0486L160.899 80.945L166.221 114.096L165.566 114.201" fill="#FFDA00"/>
<path d="M160.898 80.9461L161.553 80.8411L166.875 113.994L166.221 114.098" fill="#FFDA00"/>
<path d="M161.555 80.8407L162.208 80.7362L167.531 113.888L166.877 113.992" fill="#FFDA00"/>
<path d="M162.207 80.7362L162.862 80.6323L168.184 113.784L167.53 113.889" fill="#FFDA00"/>
<path d="M162.861 80.634L163.516 80.5297L168.838 113.681L168.183 113.785" fill="#FFDA00"/>
<path d="M163.516 80.5285L164.17 80.4238L169.493 113.575L168.839 113.68" fill="#FFDA00"/>
<path d="M164.17 80.4248L164.824 80.3198L170.147 113.472L169.493 113.576" fill="#FFDA00"/>
<path d="M164.826 80.3212L165.481 80.2168L170.803 113.368L170.148 113.473" fill="#FFDA00"/>
<path d="M165.48 80.2152L166.135 80.1114L171.457 113.263L170.803 113.367" fill="#FFDA00"/>
<path d="M166.135 80.11L166.789 80.0059L172.112 113.157L171.458 113.262" fill="#FFDA00"/>
<path d="M166.789 80.0069L167.443 79.9023L172.766 113.054L172.112 113.158" fill="#FFDA00"/>
<path d="M167.443 79.9008L168.098 79.7969L173.421 112.948L172.766 113.053" fill="#FFDA00"/>
<path d="M168.098 79.7976L168.752 79.6933L174.075 112.845L173.42 112.949" fill="#FFDA00"/>
<path d="M168.754 79.6943L169.409 79.5896L174.731 112.741L174.076 112.846" fill="#FFDA00"/>
<path d="M169.406 79.5882L170.06 79.4842L175.383 112.636L174.729 112.74" fill="#FFDA00"/>
<path d="M170.061 79.4847L170.715 79.3803L176.037 112.532L175.383 112.637" fill="#FFDA00"/>
<path d="M170.715 79.3822L171.37 79.2774L176.692 112.429L176.037 112.533" fill="#FFDA00"/>
<path d="M171.371 79.2763L172.025 79.1722L177.348 112.323L176.693 112.428" fill="#FFDA00"/>
<path d="M172.025 79.1722L172.68 79.0677L178.002 112.22L177.348 112.324" fill="#FFDA00"/>
<path d="M172.68 79.067L173.334 78.9632L178.656 112.114L178.002 112.219" fill="#FFDA00"/>
<path d="M173.334 78.9634L173.989 78.8592L179.311 112.011L178.656 112.115" fill="#FFDA00"/>
<path d="M173.988 78.8584L174.643 78.7539L179.966 111.905L179.311 112.01" fill="#FFDA00"/>
<path d="M174.645 78.7541L175.299 78.6503L180.622 111.802L179.967 111.906" fill="#FFDA00"/>
<path d="M175.299 78.6486L175.953 78.5444L181.275 111.696L180.62 111.801" fill="#FFDA00"/>
<path d="M175.951 78.5458L176.605 78.4413L181.928 111.593L181.274 111.697" fill="#FFDA00"/>
<path d="M176.605 78.4423L177.26 78.3374L182.583 111.489L181.928 111.594" fill="#FFD900"/>
<path d="M177.26 78.3364L177.914 78.2322L183.237 111.384L182.583 111.488" fill="#FFD900"/>
<path d="M177.916 78.233L178.57 78.1284L183.893 111.28L183.239 111.385" fill="#FFD900"/>
<path d="M178.57 78.1282L179.225 78.0232L184.547 111.175L183.893 111.279" fill="#FFD900"/>
<path d="M179.225 78.0236L179.88 77.9194L185.202 111.071L184.548 111.176" fill="#FFD900"/>
<path d="M179.879 77.9186L180.533 77.8141L185.856 110.966L185.201 111.07" fill="#FFD900"/>
<path d="M180.533 77.8156L181.188 77.7109L186.51 110.862L185.856 110.967" fill="#FFD900"/>
<path d="M181.188 77.7118L181.843 77.6071L187.164 110.759L186.51 110.863" fill="#FFD900"/>
<path d="M181.844 77.606L182.498 77.5024L187.821 110.653L187.165 110.758" fill="#FFD900"/>
<path d="M182.498 77.5032L183.152 77.3985L188.475 110.55L187.821 110.654" fill="#FFD900"/>
<path d="M183.152 77.3974L183.807 77.2927L189.129 110.444L188.475 110.549" fill="#FFD900"/>
<path d="M183.807 77.2936L184.461 77.1889L189.784 110.341L189.129 110.445" fill="#FFD900"/>
<path d="M184.461 77.1878L185.115 77.0842L190.438 110.235L189.784 110.34" fill="#FFD900"/>
<path d="M185.115 77.085L185.77 76.9803L191.092 110.132L190.438 110.236" fill="#FFD900"/>
<path d="M185.77 76.9812L186.425 76.8765L191.748 110.028L191.092 110.133" fill="#FFD900"/>
</g>
<mask id="mask5_1508_41585" style="mask-type:luminance" maskUnits="userSpaceOnUse" x="187" y="77" width="23" height="32">
<path d="M208.955 105.831L187.633 108.531L188.495 80.4956L209.755 77.8028L209.542 84.8626L196.91 86.4627L196.816 89.7649L208.269 88.3139L208.047 95.3135L196.594 96.7645L196.485 100.438L209.157 98.8329L208.955 105.831Z" fill="white"/>
</mask>
<g mask="url(#mask5_1508_41585)">
<path d="M182.016 78.699L182.67 78.5944L188.033 111.995L187.379 112.1" fill="#FFD900"/>
<path d="M182.67 78.5956L183.325 78.4906L188.687 111.892L188.033 111.996" fill="#FFD900"/>
<path d="M183.324 78.4896L183.979 78.3854L189.341 111.786L188.687 111.891" fill="#FFD900"/>
<path d="M183.98 78.3868L184.634 78.2823L189.997 111.683L189.342 111.787" fill="#FFD900"/>
<path d="M184.635 78.2812L185.289 78.1763L190.651 111.577L189.996 111.682" fill="#FFD900"/>
<path d="M185.289 78.1778L185.944 78.0725L191.306 111.474L190.652 111.578" fill="#FFD900"/>
<path d="M185.943 78.0715L186.598 77.967L191.96 111.368L191.305 111.473" fill="#FFD900"/>
<path d="M186.598 77.9685L187.252 77.8637L192.615 111.265L191.96 111.369" fill="#FFD900"/>
<path d="M187.252 77.8626L187.906 77.7587L193.269 111.159L192.615 111.264" fill="#FFD900"/>
<path d="M187.908 77.7589L188.563 77.6545L193.925 111.056L193.27 111.16" fill="#FFD900"/>
<path d="M188.561 77.6566L189.215 77.5519L194.577 110.952L193.923 111.057" fill="#FFD900"/>
<path d="M189.215 77.551L189.87 77.446L195.232 110.847L194.578 110.951" fill="#FFD900"/>
<path d="M189.869 77.4475L190.524 77.3421L195.886 110.743L195.231 110.848" fill="#FFD900"/>
<path d="M190.525 77.3421L191.18 77.2375L196.542 110.638L195.888 110.742" fill="#FFD900"/>
<path d="M191.18 77.2374L191.834 77.1337L197.197 110.534L196.543 110.639" fill="#FFD900"/>
<path d="M191.834 77.1319L192.488 77.0279L197.851 110.429L197.197 110.533" fill="#FFD900"/>
<path d="M192.488 77.0284L193.143 76.924L198.506 110.325L197.852 110.43" fill="#FFD900"/>
<path d="M193.143 76.9229L193.797 76.8194L199.16 110.22L198.505 110.324" fill="#FFD900"/>
<path d="M193.799 76.8192L194.453 76.7154L199.815 110.116L199.161 110.221" fill="#FFD800"/>
<path d="M194.453 76.7149L195.107 76.6095L200.47 110.011L199.815 110.115" fill="#FFD800"/>
<path d="M195.105 76.6112L195.759 76.5067L201.122 109.907L200.468 110.012" fill="#FFD800"/>
<path d="M195.76 76.5072L196.415 76.4035L201.777 109.804L201.122 109.908" fill="#FFD800"/>
<path d="M196.414 76.4024L197.069 76.2972L202.431 109.698L201.777 109.803" fill="#FFD800"/>
<path d="M197.07 76.298L197.724 76.1937L203.087 109.595L202.433 109.699" fill="#FFD800"/>
<path d="M197.725 76.1927L198.38 76.0881L203.742 109.489L203.087 109.594" fill="#FFD800"/>
<path d="M198.379 76.0891L199.033 75.9854L204.395 109.386L203.741 109.49" fill="#FFD800"/>
<path d="M199.033 75.9834L199.687 75.8793L205.05 109.28L204.396 109.385" fill="#FFD800"/>
<path d="M199.688 75.8805L200.342 75.7761L205.705 109.177L205.05 109.281" fill="#FFD800"/>
<path d="M200.342 75.7773L200.996 75.6726L206.359 109.073L205.705 109.178" fill="#FFD800"/>
<path d="M200.998 75.6719L201.653 75.5669L207.015 108.968L206.361 109.072" fill="#FFD800"/>
<path d="M201.65 75.5684L202.305 75.4643L207.668 108.864L207.013 108.969" fill="#FFD800"/>
<path d="M202.305 75.4642L202.959 75.3597L208.322 108.761L207.667 108.865" fill="#FFD800"/>
<path d="M202.961 75.3589L203.615 75.2541L208.978 108.655L208.324 108.76" fill="#FFD800"/>
<path d="M203.613 75.2552L204.268 75.1514L209.631 108.552L208.976 108.656" fill="#FFD800"/>
<path d="M204.271 75.1497L204.925 75.0459L210.288 108.446L209.634 108.551" fill="#FFD800"/>
<path d="M204.924 75.0448L205.579 74.9396L210.941 108.341L210.286 108.445" fill="#FFD800"/>
<path d="M205.58 74.9404L206.234 74.8365L211.596 108.237L210.943 108.342" fill="#FFD800"/>
<path d="M206.232 74.8374L206.887 74.7335L212.25 108.134L211.595 108.238" fill="#FFD800"/>
<path d="M206.889 74.7324L207.542 74.6272L212.906 108.028L212.251 108.133" fill="#FFD800"/>
<path d="M207.541 74.6281L208.196 74.5242L213.559 107.925L212.905 108.029" fill="#FFD800"/>
<path d="M208.197 74.523L208.852 74.4191L214.215 107.819L213.56 107.924" fill="#FFD700"/>
<path d="M208.852 74.42L209.505 74.3149L214.868 107.716L214.214 107.82" fill="#FFD700"/>
<path d="M209.506 74.3138L210.161 74.2099L215.523 107.61L214.868 107.715" fill="#FFD700"/>
</g>
<mask id="mask6_1508_41585" style="mask-type:luminance" maskUnits="userSpaceOnUse" x="211" y="75" width="29" height="31">
<path d="M221.021 83.593L220.611 97.197L224.347 96.7235C228.631 96.1812 231.026 92.4638 230.414 87.6678C229.962 84.1258 227.783 82.7358 224.758 83.1195L221.021 83.593ZM211.924 105.453L212.785 77.4183L225.415 75.8182C233.193 74.8337 238.197 77.9825 239.133 85.3291C240.472 95.8324 235.033 102.527 224.534 103.856L211.924 105.453Z" fill="white"/>
</mask>
<g mask="url(#mask6_1508_41585)">
<path d="M206.375 75.7178L207.03 75.6138L212.536 109.907L211.881 110.012" fill="#FFD800"/>
<path d="M207.029 75.6143L207.683 75.51L213.19 109.804L212.536 109.908" fill="#FFD800"/>
<path d="M207.684 75.5094L208.338 75.4048L213.844 109.698L213.19 109.803" fill="#FFD800"/>
<path d="M208.338 75.406L208.992 75.3011L214.498 109.595L213.844 109.699" fill="#FFD700"/>
<path d="M208.992 75.3018L209.647 75.1979L215.152 109.491L214.498 109.596" fill="#FFD700"/>
<path d="M209.646 75.1965L210.301 75.0923L215.807 109.386L215.153 109.49" fill="#FFD700"/>
<path d="M210.303 75.0925L210.957 74.9879L216.463 109.282L215.809 109.387" fill="#FFD700"/>
<path d="M210.957 74.9871L211.611 74.8835L217.118 109.177L216.464 109.281" fill="#FFD700"/>
<path d="M211.611 74.8843L212.266 74.7791L217.772 109.073L217.117 109.178" fill="#FFD700"/>
<path d="M212.266 74.7776L212.92 74.6735L218.426 108.968L217.772 109.072" fill="#FFD700"/>
<path d="M212.922 74.6747L213.575 74.5703L219.082 108.864L218.427 108.969" fill="#FFD700"/>
<path d="M213.574 74.5713L214.229 74.4666L219.735 108.761L219.08 108.865" fill="#FFD700"/>
<path d="M214.229 74.4664L214.883 74.3613L220.389 108.655L219.734 108.76" fill="#FFD700"/>
<path d="M214.883 74.3626L215.538 74.2586L221.044 108.552L220.389 108.656" fill="#FFD700"/>
<path d="M215.539 74.2574L216.193 74.153L221.699 108.446L221.045 108.551" fill="#FFD700"/>
<path d="M216.193 74.1533L216.848 74.0487L222.354 108.343L221.699 108.447" fill="#FFD700"/>
<path d="M216.848 74.0479L217.503 73.9429L223.008 108.237L222.354 108.342" fill="#FFD700"/>
<path d="M217.502 73.9448L218.156 73.8395L223.663 108.134L223.008 108.238" fill="#FFD700"/>
<path d="M218.156 73.8389L218.81 73.7347L224.316 108.028L223.661 108.133" fill="#FFD700"/>
<path d="M218.812 73.7355L219.467 73.6309L224.972 107.925L224.318 108.029" fill="#FFD700"/>
<path d="M219.465 73.6293L220.12 73.5258L225.626 107.82L224.971 107.924" fill="#FFD700"/>
<path d="M220.119 73.5269L220.774 73.4217L226.28 107.716L225.626 107.82" fill="#FFD600"/>
<path d="M220.773 73.4234L221.428 73.3179L226.934 107.612L226.28 107.717" fill="#FFD600"/>
<path d="M221.428 73.3169L222.083 73.2126L227.588 107.507L226.933 107.611" fill="#FFD600"/>
<path d="M222.084 73.2144L222.738 73.1097L228.244 107.404L227.59 107.508" fill="#FFD600"/>
<path d="M222.736 73.1087L223.391 73.0037L228.897 107.298L228.243 107.402" fill="#FFD600"/>
<path d="M223.393 73.0055L224.046 72.9002L229.553 107.195L228.898 107.299" fill="#FFD600"/>
<path d="M224.047 72.8992L224.701 72.795L230.207 107.089L229.554 107.193" fill="#FFD600"/>
<path d="M224.701 72.7951L225.357 72.6921L230.862 106.986L230.208 107.09" fill="#FFD600"/>
<path d="M225.355 72.6909L226.01 72.5862L231.516 106.88L230.861 106.984" fill="#FFD600"/>
<path d="M226.01 72.5863L226.664 72.4827L232.17 106.777L231.515 106.881" fill="#FFD600"/>
<path d="M226.664 72.4833L227.318 72.3794L232.825 106.673L232.17 106.777" fill="#FFD600"/>
<path d="M227.318 72.3785L227.973 72.2729L233.479 106.567L232.824 106.672" fill="#FFD600"/>
<path d="M227.973 72.2746L228.628 72.1701L234.133 106.464L233.478 106.568" fill="#FFD600"/>
<path d="M228.627 72.1691L229.282 72.0643L234.788 106.359L234.134 106.463" fill="#FFD600"/>
<path d="M229.283 72.0657L229.938 71.9606L235.444 106.255L234.789 106.359" fill="#FFD600"/>
<path d="M229.938 71.9625L230.592 71.8572L236.098 106.151L235.443 106.256" fill="#FFD600"/>
<path d="M230.592 71.8561L231.245 71.7519L236.752 106.046L236.097 106.15" fill="#FFD500"/>
<path d="M231.246 71.7534L231.902 71.6489L237.407 105.943L236.753 106.047" fill="#FFD500"/>
<path d="M231.9 71.6475L232.555 71.5427L238.061 105.837L237.406 105.941" fill="#FFD500"/>
<path d="M232.555 71.5439L233.208 71.4403L238.714 105.734L238.06 105.838" fill="#FFD500"/>
<path d="M233.209 71.4389L233.864 71.3335L239.37 105.628L238.715 105.732" fill="#FFD500"/>
<path d="M233.863 71.3343L234.518 71.2305L240.024 105.525L239.37 105.629" fill="#FFD500"/>
<path d="M234.52 71.2313L235.174 71.1274L240.679 105.421L240.026 105.525" fill="#FFD500"/>
<path d="M235.174 71.1262L235.827 71.0209L241.334 105.315L240.679 105.42" fill="#FFD500"/>
<path d="M235.828 71.0219L236.483 70.918L241.989 105.212L241.334 105.316" fill="#FFD500"/>
<path d="M236.482 70.9168L237.137 70.8129L242.644 105.107L241.989 105.211" fill="#FFD500"/>
<path d="M237.137 70.8137L237.792 70.7084L243.296 105.003L242.643 105.107" fill="#FFD500"/>
<path d="M237.791 70.7072L238.444 70.6034L243.951 104.898L243.296 105.002" fill="#FFD500"/>
<path d="M238.445 70.6042L239.1 70.5003L244.606 104.794L243.952 104.898" fill="#FFD500"/>
<path d="M239.1 70.4993L239.754 70.3954L245.261 104.689L244.606 104.793" fill="#FFD500"/>
</g>
<path d="M139.492 143.358C143.39 142.864 145.905 139.276 145.348 134.925C144.951 131.809 142.875 129.933 139.89 130.311C135.909 130.815 133.325 134.33 133.875 138.64C134.283 141.838 136.404 143.749 139.492 143.358ZM140.116 122.365C147.75 121.398 153.149 125.711 154.053 132.794C155.25 142.185 148.779 150.016 139.215 151.228C131.54 152.2 126.095 147.872 125.188 140.749C123.992 131.378 130.53 123.58 140.116 122.365Z" fill="white"/>
<path d="M165.303 147.512L156.672 148.605L157.534 120.571L178.124 117.962L177.906 124.982L165.965 126.494L165.858 130.024L175.199 128.841L174.983 135.881L165.641 137.064L165.303 147.512Z" fill="white"/>
<path d="M188.477 144.576L179.846 145.67L180.708 117.635L201.298 115.027L201.079 122.047L189.139 123.559L189.031 127.089L198.372 125.905L198.156 132.946L188.815 134.128L188.477 144.576Z" fill="white"/>
<path d="M224.34 140.034L203.018 142.734L203.879 114.7L225.141 112.006L224.927 119.066L212.295 120.666L212.201 123.968L223.655 122.517L223.432 129.517L211.979 130.968L211.87 134.641L224.543 133.036L224.34 140.034Z" fill="white"/>
<path d="M236.484 117.912L236.305 123.959L240.041 123.486C242.559 123.167 244.147 121.856 243.835 119.407C243.613 117.667 242.351 117.168 240.22 117.439L236.484 117.912ZM236.086 130.814L235.857 138.576L227.309 139.658L228.169 111.623L242.263 109.838C248.618 109.033 251.939 112.417 252.53 117.052C253.187 122.192 250.67 126.726 246.117 128.721C247.002 130.008 248.458 130.584 250.55 130.319C251.444 130.206 252.39 130.025 253.219 129.734L253.002 136.28C252.421 136.58 250.936 137.077 249.373 137.275C244.235 137.925 240.723 135.944 238.279 130.537L236.086 130.814Z" fill="white"/>
<path d="M250.597 154.699L76.6562 175.568L76.8364 172.849L250.777 151.979L250.597 154.699Z" fill="#241C00"/>
<path d="M266.792 71.6608L239.94 74.8828L239.84 72.9905L266.694 69.7687L266.792 71.6608Z" fill="#FFB700"/>
<path d="M149.041 178.052L94.8262 184.557L94.9424 180.741L149.158 174.236L149.041 178.052Z" fill="white"/>
<path d="M64.8839 104.021L41.543 106.822L41.5934 105.179L64.9343 102.379L64.8839 104.021Z" fill="white"/>
<path d="M193.902 56.5766L105.748 67.1523L106.464 65.2985L194.619 54.7228L193.902 56.5766Z" fill="white"/>
<path d="M308.185 112.377L260.549 118.092L260.821 116.151L308.458 110.435L308.185 112.377Z" fill="white"/>
<path d="M122.01 156.143L47.8652 165.039L48.2908 162.018L122.436 153.121L122.01 156.143Z" fill="white"/>
<path d="M302.721 71.704C304.096 89.2724 290.921 104.627 273.291 105.997C255.663 107.368 240.255 94.2376 238.88 76.6687C237.505 59.0999 250.68 43.7463 268.31 42.3753C285.94 41.0045 301.345 54.1352 302.721 71.704Z" fill="#241C00"/>
<path d="M298.377 72.0409C299.566 87.2189 288.183 100.483 272.953 101.667C257.723 102.851 244.413 91.5074 243.226 76.33C242.037 61.1523 253.42 47.8881 268.649 46.7038C283.879 45.5194 297.188 56.8632 298.377 72.0409Z" fill="white"/>
<path d="M270.752 53.7286L267.666 53.9688L267.311 49.4404L270.398 49.2003L270.752 53.7286Z" fill="#241C00"/>
<path d="M272.346 74.0647L269.259 74.3047L267.934 57.3684L271.02 57.1283L272.346 74.0647Z" fill="#241C00"/>
<path d="M271.511 75.7109L270.121 72.9311L285.983 66.7113L287.117 69.5828L271.511 75.7109Z" fill="#241C00"/>
<path d="M271.444 39.155L264.711 39.6777L264.283 34.2011L271.016 33.6783L271.444 39.155Z" fill="#241C00"/>
<path d="M246.436 49.0332L242.047 54.1484L237.859 50.5776L242.248 45.4639L246.436 49.0332Z" fill="#241C00"/>
<path d="M296.138 49.791L291.006 45.4171L294.588 41.2422L299.72 45.6161L296.138 49.791Z" fill="#241C00"/>
<path d="M273.693 36.2239L262.035 37.1309L261.816 34.3481L273.474 33.4411L273.693 36.2239Z" fill="#241C00"/>
<path d="M256.253 59.7539L254.241 62.0996L250.777 59.1476L252.79 56.8023L256.253 59.7539Z" fill="#241C00"/>
<path d="M250.274 74.2344L250.515 77.3107L245.97 77.6641L245.73 74.5878L250.274 74.2344Z" fill="#241C00"/>
<path d="M256.322 88.6837L258.676 90.6893L255.713 94.1406L253.359 92.1351L256.322 88.6837Z" fill="#241C00"/>
<path d="M270.852 94.6417L273.938 94.4019L274.293 98.9301L271.207 99.1699L270.852 94.6417Z" fill="#241C00"/>
<path d="M285.35 88.6167L287.362 86.2714L290.827 89.2236L288.815 91.5684L285.35 88.6167Z" fill="#241C00"/>
<path d="M291.329 74.1367L291.088 71.0603L295.631 70.7068L295.873 73.7833L291.329 74.1367Z" fill="#241C00"/>
<path d="M285.281 59.6855L282.928 57.68L285.89 54.2282L288.243 56.2339L285.281 59.6855Z" fill="#241C00"/>
<path d="M272.555 74.0499C272.625 74.9573 271.945 75.7503 271.035 75.8211C270.123 75.8919 269.329 75.2137 269.257 74.3063C269.187 73.399 269.866 72.606 270.777 72.5353C271.687 72.4645 272.483 73.1425 272.555 74.0499Z" fill="#241C00"/>
</g>
<defs>
<clipPath id="clip0_1508_41585">
<rect width="350" height="218" fill="white"/>
</clipPath>
</defs>
</svg>
